<svg width="15" height="14" viewBox="0 0 15 14" fill="none" xmlns="http://www.w3.org/2000/svg">
<path d="M6.58471 0.927048C6.88406 0.00573778 8.18747 0.0057404 8.48682 0.927051L9.44414 3.87336C9.57801 4.28538 9.96197 4.56434 10.3952 4.56434H13.4931C14.4618 4.56434 14.8646 5.80395 14.0809 6.37336L11.5746 8.19427C11.2241 8.44892 11.0775 8.90028 11.2114 9.31231L12.1687 12.2586C12.468 13.1799 11.4135 13.946 10.6298 13.3766L8.12355 11.5557C7.77306 11.3011 7.29847 11.3011 6.94798 11.5557L4.4417 13.3766C3.65799 13.946 2.60351 13.1799 2.90286 12.2586L3.86018 9.3123C3.99405 8.90028 3.84739 8.44892 3.4969 8.19427L0.990626 6.37335C0.206912 5.80395 0.60969 4.56434 1.57841 4.56434H4.67634C5.10957 4.56434 5.49352 4.28538 5.6274 3.87336L6.58471 0.927048Z" fill="#227979"/>
</svg>
