<svg width="23" height="22" viewBox="0 0 23 22" fill="none" xmlns="http://www.w3.org/2000/svg">
<path d="M10.7156 0.927049C11.0149 0.0057385 12.3183 0.00573993 12.6177 0.927051L14.5853 6.98278C14.7192 7.3948 15.1031 7.67376 15.5364 7.67376H21.9037C22.8725 7.67376 23.2752 8.91338 22.4915 9.48278L17.3402 13.2254C16.9897 13.4801 16.8431 13.9314 16.9769 14.3435L18.9446 20.3992C19.2439 21.3205 18.1894 22.0866 17.4057 21.5172L12.2544 17.7746C11.9039 17.5199 11.4293 17.5199 11.0788 17.7746L5.92753 21.5172C5.14382 22.0866 4.08934 21.3205 4.38869 20.3992L6.35631 14.3435C6.49019 13.9314 6.34353 13.4801 5.99304 13.2254L0.841731 9.48278C0.0580177 8.91338 0.460794 7.67376 1.42952 7.67376H7.79689C8.23011 7.67376 8.61407 7.3948 8.74794 6.98278L10.7156 0.927049Z" fill="#21BABA"/>
</svg>
